<mxfile host="app.diagrams.net" modified="2023-04-12T09:28:17.211Z" agent="Mozilla/5.0 (Macintosh; Intel Mac OS X 10_15_7) AppleWebKit/537.36 (KHTML, like Gecko) Chrome/112.0.0.0 Safari/537.36" version="21.1.6" etag="H3lfIjBt2NeNaoBB0Zym" type="github">
  <diagram name="Page-1" id="fJM59_PNsV5dwVnYhkQV">
    <mxGraphModel>
      <root>
        <mxCell id="0" />
        <mxCell id="1" parent="0" />
      </root>
    </mxGraphModel>
  </diagram>
</mxfile>
